<svg width="50" height="50" viewBox="0 0 50 50" fill="none" xmlns="http://www.w3.org/2000/svg">
<g id="paperclip " clip-path="url(#clip0_119_6)">
<circle id="Ellipse 6" cx="25" cy="25" r="25" fill="#B99C64"/>
<path id="Vector" d="M32.275 13.9301C31.586 13.9192 31.0281 14.4879 31.0281 15.1989L31.0063 36.5051C30.9953 41.2957 27.7578 43.4395 24.75 43.4176C21.7422 43.3848 18.5047 41.1864 18.5156 36.4067C18.5156 32.7426 18.5375 18.0645 18.5485 10.7254C18.5485 9.04106 19.2047 7.72856 20.386 7.0395C21.5453 6.36137 23.0547 6.37231 24.2141 7.07231C25.3953 7.78325 26.0406 9.10669 26.0406 10.7911L26.0078 35.3458C26.0078 36.1442 25.8219 36.8004 25.4938 37.2161C25.286 37.4786 25.0125 37.6317 24.7391 37.6317C24.1266 37.6208 23.4922 36.8332 23.5031 35.3567C23.5031 35.3567 23.525 17.1676 23.536 16.4676C23.536 15.7567 22.9781 15.177 22.2891 15.177C21.6 15.177 21.0422 15.7457 21.0422 16.4567L21.0094 35.3458C21.0094 38.5176 22.8906 40.1911 24.75 40.2129C25.7781 40.2239 26.7516 39.7317 27.4406 38.8567C28.1297 37.9817 28.5016 36.7786 28.5016 35.3786L28.5344 10.8239C28.5344 8.22075 27.4188 6.05512 25.461 4.88481C23.5469 3.72544 21.0531 3.70356 19.1281 4.83012C17.1703 5.97856 16.0438 8.12231 16.0328 10.7254C16.0219 18.0536 16.011 32.7317 16 36.4067C15.9891 42.6629 20.386 45.9661 24.7281 46.0098C26.9703 46.0317 29.2235 45.1676 30.886 43.4833C32.4391 41.8973 33.4781 39.5786 33.4781 36.5489L33.4891 15.2317C33.5219 14.5098 32.9641 13.9301 32.275 13.9301Z" fill="white"/>
</g>
<defs>
<clipPath id="clip0_119_6">
<rect width="50" height="50" fill="white"/>
</clipPath>
</defs>
</svg>
